# xmcd
#
# Track frame offsets:
#	150
#	21075
#	51185
#	76437
#	93607
#	114905
#	133627
#	150507
#	165307
#	184195
#	201660
#	216925
#	235995
#	254352
#	270422
#	285707
#
# Disc length: 4048 seconds
#
# Revision: 0
# Processed by: cddbd v1.5.1PL2 Copyright (c) Steve Scherf et al.
# Submitted via: audiograbber 1.83.01
#
DISCID=e00fce10
DTITLE=ламты - стом ебдоло оуяамо
DYEAR=1995
DGENRE=екк поп
TTITLE0=стом ебдоло оуяамо 
TTITLE1=цуакима жеццаяиа  (All Through The Night) 
TTITLE2=апеикг 
TTITLE3=ацапг лпке 
TTITLE4=дом йивытгс 
TTITLE5=лгм аяцеис 
TTITLE6=йоитафы то яокои 
TTITLE7=йата бахос паидиа 
TTITLE8=то пакио лас тяацоуди   (МТОУщТО ЛЕ ТГМ лАЯъА аПщЯЦГ) 
TTITLE9=стис акуйес тоу йослоу 
TTITLE10=опоу йи ам еисаи 
TTITLE11=тым вягслым та дыяа
TTITLE12=лесглеяиасе 
TTITLE13=ажемтг лоу мотиа 
TTITLE14=йаядиа лоу ломг 
TTITLE15=ока та хаулата  (Ending) 
EXTD=
EXTT0=
EXTT1=
EXTT2=
EXTT3=
EXTT4=
EXTT5=
EXTT6=
EXTT7=
EXTT8=
EXTT9=
EXTT10=
EXTT11=
EXTT12=
EXTT13=
EXTT14=
EXTT15=
PLAYORDER=
